<svg width="15" height="16" viewBox="0 0 15 16" fill="none" xmlns="http://www.w3.org/2000/svg">
<g clip-path="url(#clip0_1_5912)">
<path d="M8.59375 2.5C8.59375 1.94687 8.14687 1.5 7.59375 1.5C7.04063 1.5 6.59375 1.94687 6.59375 2.5V7H2.09375C1.54062 7 1.09375 7.44688 1.09375 8C1.09375 8.55312 1.54062 9 2.09375 9H6.59375V13.5C6.59375 14.0531 7.04063 14.5 7.59375 14.5C8.14687 14.5 8.59375 14.0531 8.59375 13.5V9H13.0938C13.6469 9 14.0938 8.55312 14.0938 8C14.0938 7.44688 13.6469 7 13.0938 7H8.59375V2.5Z" fill="white"/>
</g>
<defs>
<clipPath id="clip0_1_5912">
<path d="M0.59375 0H14.5938V16H0.59375V0Z" fill="white"/>
</clipPath>
</defs>
</svg>
